#define iconify_width 5
#define iconify_height 5
static unsigned char iconify_bits[] = {
   0x11, 0x11, 0x11, 0x0a, 0x04 };
