#define max_toggled_width 12
#define max_toggled_height 12
static unsigned char max_toggled_bits[] = {
   0xff, 0x0f, 0x01, 0x08, 0xfd, 0x0b, 0x05, 0x0a, 0x05, 0x0a, 0x05, 0x0a,
   0x05, 0x0a, 0x05, 0x0a, 0xfd, 0x0b, 0xfd, 0x0b, 0x01, 0x08, 0xff, 0x0f };
